<mxfile host="drawio-plugin" modified="2021-11-22T05:09:34.795Z" agent="5.0 (Windows NT 6.2; Win64; x64) AppleWebKit/537.36 (KHTML, like Gecko) Chrome/89.0.4389.114 Safari/537.36" etag="qFAo1sjmM_Je3RJazNRs" version="14.7.4" type="embed"><diagram id="23iRSUPoRavnBvh4doch" name="认证流程分析"><mxGraphModel dx="2003" dy="1085" grid="1" gridSize="10" guides="1" tooltips="1" connect="1" arrows="1" fold="1" page="1" pageScale="1" pageWidth="827" pageHeight="1169" background="#F1FAEE" math="0" shadow="0"><root><mxCell id="0"/><mxCell id="1" parent="0"/><mxCell id="kfIuf5m89h-3Lnu9Meaa-1" value="AbstractAuthenticationProcessingFilter" style="swimlane;fontStyle=1;align=center;verticalAlign=top;childLayout=stackLayout;horizontal=1;startSize=26;horizontalStack=0;resizeParent=1;resizeParentMax=0;resizeLast=0;collapsible=1;marginBottom=0;rounded=1;sketch=1;fontColor=#000000;strokeColor=#457B9D;fillColor=#A8DADC;fontFamily=Comic Sans MS;" parent="1" vertex="1"><mxGeometry x="140" y="360" width="380" height="210" as="geometry"/></mxCell><mxCell id="kfIuf5m89h-3Lnu9Meaa-2" value="..." style="text;strokeColor=none;fillColor=none;align=left;verticalAlign=top;spacingLeft=4;spacingRight=4;overflow=hidden;rotatable=0;points=[[0,0.5],[1,0.5]];portConstraint=eastwest;rounded=1;sketch=1;fontColor=#000000;fontFamily=Comic Sans MS;fontStyle=1" parent="kfIuf5m89h-3Lnu9Meaa-1" vertex="1"><mxGeometry y="26" width="380" height="26" as="geometry"/></mxCell><mxCell id="kfIuf5m89h-3Lnu9Meaa-3" value="" style="line;strokeWidth=1;fillColor=none;align=left;verticalAlign=middle;spacingTop=-1;spacingLeft=3;spacingRight=3;rotatable=0;labelPosition=right;points=[];portConstraint=eastwest;rounded=1;sketch=1;fontColor=#000000;strokeColor=#457B9D;labelBackgroundColor=#F1FAEE;fontFamily=Comic Sans MS;fontStyle=1" parent="kfIuf5m89h-3Lnu9Meaa-1" vertex="1"><mxGeometry y="52" width="380" height="8" as="geometry"/></mxCell><mxCell id="kfIuf5m89h-3Lnu9Meaa-4" value="- requiresAuthentication&#10;+ attemptAuthentication" style="text;strokeColor=none;fillColor=none;align=left;verticalAlign=top;spacingLeft=4;spacingRight=4;overflow=hidden;rotatable=0;points=[[0,0.5],[1,0.5]];portConstraint=eastwest;rounded=1;sketch=1;fontColor=#000000;fontFamily=Comic Sans MS;fontStyle=1" parent="kfIuf5m89h-3Lnu9Meaa-1" vertex="1"><mxGeometry y="60" width="380" height="150" as="geometry"/></mxCell><mxCell id="kfIuf5m89h-3Lnu9Meaa-5" style="edgeStyle=orthogonalEdgeStyle;curved=1;sketch=1;orthogonalLoop=1;jettySize=auto;html=1;entryX=0.938;entryY=0.012;entryDx=0;entryDy=0;entryPerimeter=0;dashed=1;fontFamily=Comic Sans MS;fontColor=#000000;startArrow=none;startFill=0;endArrow=none;endFill=0;startSize=20;strokeColor=#457b9d;fillColor=#A8DADC;rounded=0;" parent="1" source="kfIuf5m89h-3Lnu9Meaa-6" target="kfIuf5m89h-3Lnu9Meaa-1" edge="1"><mxGeometry relative="1" as="geometry"/></mxCell><mxCell id="kfIuf5m89h-3Lnu9Meaa-6" value="处理身份认证" style="text;align=center;fontStyle=1;verticalAlign=middle;spacingLeft=3;spacingRight=3;strokeColor=none;rotatable=0;points=[[0,0.5],[1,0.5]];portConstraint=eastwest;rounded=1;sketch=1;fontFamily=Comic Sans MS;fontColor=#000000;fillColor=#A8DADC;" parent="1" vertex="1"><mxGeometry x="520" y="320" width="80" height="26" as="geometry"/></mxCell><mxCell id="kfIuf5m89h-3Lnu9Meaa-7" value="UsernamePasswordAuthenticationFilter" style="swimlane;fontStyle=1;align=center;verticalAlign=top;childLayout=stackLayout;horizontal=1;startSize=26;horizontalStack=0;resizeParent=1;resizeParentMax=0;resizeLast=0;collapsible=1;marginBottom=0;rounded=1;sketch=1;fontColor=#000000;strokeColor=#457B9D;fillColor=#A8DADC;fontFamily=Comic Sans MS;" parent="1" vertex="1"><mxGeometry x="165" y="790" width="305" height="220" as="geometry"/></mxCell><mxCell id="kfIuf5m89h-3Lnu9Meaa-8" value="..." style="text;strokeColor=none;fillColor=none;align=left;verticalAlign=top;spacingLeft=4;spacingRight=4;overflow=hidden;rotatable=0;points=[[0,0.5],[1,0.5]];portConstraint=eastwest;rounded=1;sketch=1;fontColor=#000000;fontFamily=Comic Sans MS;fontStyle=1" parent="kfIuf5m89h-3Lnu9Meaa-7" vertex="1"><mxGeometry y="26" width="305" height="26" as="geometry"/></mxCell><mxCell id="kfIuf5m89h-3Lnu9Meaa-9" value="" style="line;strokeWidth=1;fillColor=none;align=left;verticalAlign=middle;spacingTop=-1;spacingLeft=3;spacingRight=3;rotatable=0;labelPosition=right;points=[];portConstraint=eastwest;rounded=1;sketch=1;fontColor=#000000;strokeColor=#457B9D;labelBackgroundColor=#F1FAEE;fontFamily=Comic Sans MS;fontStyle=1" parent="kfIuf5m89h-3Lnu9Meaa-7" vertex="1"><mxGeometry y="52" width="305" height="8" as="geometry"/></mxCell><mxCell id="kfIuf5m89h-3Lnu9Meaa-10" value="。。。" style="text;strokeColor=none;fillColor=none;align=left;verticalAlign=top;spacingLeft=4;spacingRight=4;overflow=hidden;rotatable=0;points=[[0,0.5],[1,0.5]];portConstraint=eastwest;rounded=1;sketch=1;fontColor=#000000;fontFamily=Comic Sans MS;fontStyle=1" parent="kfIuf5m89h-3Lnu9Meaa-7" vertex="1"><mxGeometry y="60" width="305" height="160" as="geometry"/></mxCell><mxCell id="kfIuf5m89h-3Lnu9Meaa-11" style="edgeStyle=orthogonalEdgeStyle;curved=1;sketch=1;orthogonalLoop=1;jettySize=auto;html=1;entryX=0.938;entryY=0.012;entryDx=0;entryDy=0;entryPerimeter=0;dashed=1;fontFamily=Comic Sans MS;fontColor=#000000;startArrow=none;startFill=0;endArrow=none;endFill=0;startSize=20;strokeColor=#457b9d;fillColor=#A8DADC;rounded=0;" parent="1" source="kfIuf5m89h-3Lnu9Meaa-12" target="kfIuf5m89h-3Lnu9Meaa-7" edge="1"><mxGeometry relative="1" as="geometry"/></mxCell><mxCell id="kfIuf5m89h-3Lnu9Meaa-12" value="使用用户名密码登录的实现类" style="text;align=center;fontStyle=1;verticalAlign=middle;spacingLeft=3;spacingRight=3;strokeColor=none;rotatable=0;points=[[0,0.5],[1,0.5]];portConstraint=eastwest;rounded=1;sketch=1;fontFamily=Comic Sans MS;fontColor=#000000;fillColor=#A8DADC;" parent="1" vertex="1"><mxGeometry x="535" y="740" width="180" height="26" as="geometry"/></mxCell><mxCell id="kfIuf5m89h-3Lnu9Meaa-13" value="Extends" style="endArrow=block;endSize=16;endFill=0;html=1;rounded=1;sketch=1;fontColor=#000000;strokeColor=#457B9D;fillColor=#A8DADC;curved=1;fontFamily=Comic Sans MS;fontStyle=1;exitX=0.5;exitY=0;exitDx=0;exitDy=0;" parent="1" source="kfIuf5m89h-3Lnu9Meaa-7" target="kfIuf5m89h-3Lnu9Meaa-4" edge="1"><mxGeometry width="160" relative="1" as="geometry"><mxPoint x="330" y="580" as="sourcePoint"/><mxPoint x="490" y="580" as="targetPoint"/></mxGeometry></mxCell><mxCell id="kfIuf5m89h-3Lnu9Meaa-16" value="判断是不是登录认证" style="shape=note2;boundedLbl=1;whiteSpace=wrap;html=1;size=25;verticalAlign=top;align=left;rounded=1;sketch=1;fontFamily=Comic Sans MS;fontColor=#000000;strokeColor=#457B9D;fillColor=#A8DADC;fontStyle=1" parent="1" vertex="1"><mxGeometry x="-10" y="346" width="120" height="60" as="geometry"/></mxCell><mxCell id="kfIuf5m89h-3Lnu9Meaa-17" value="" style="html=1;verticalAlign=bottom;startArrow=oval;startFill=0;endArrow=none;startSize=8;rounded=1;sketch=1;fontFamily=Comic Sans MS;fontColor=#000000;strokeColor=#457B9D;fillColor=#A8DADC;curved=1;dashed=1;endFill=0;labelBackgroundColor=#F1FAEE;fontStyle=1;entryX=0;entryY=0;entryDx=120;entryDy=42.5;entryPerimeter=0;exitX=-0.005;exitY=0.08;exitDx=0;exitDy=0;exitPerimeter=0;" parent="1" source="kfIuf5m89h-3Lnu9Meaa-4" target="kfIuf5m89h-3Lnu9Meaa-16" edge="1"><mxGeometry width="60" relative="1" as="geometry"><mxPoint x="94" y="885" as="sourcePoint"/><mxPoint x="220" y="876" as="targetPoint"/></mxGeometry></mxCell><mxCell id="kfIuf5m89h-3Lnu9Meaa-18" value="获取一个认证后的Authentication对象" style="shape=note2;boundedLbl=1;whiteSpace=wrap;html=1;size=25;verticalAlign=top;align=left;rounded=1;sketch=1;fontFamily=Comic Sans MS;fontColor=#000000;strokeColor=#457B9D;fillColor=#A8DADC;fontStyle=1" parent="1" vertex="1"><mxGeometry x="-120" y="410" width="220" height="60" as="geometry"/></mxCell><mxCell id="kfIuf5m89h-3Lnu9Meaa-19" value="" style="html=1;verticalAlign=bottom;startArrow=oval;startFill=0;endArrow=none;startSize=8;rounded=1;sketch=1;fontFamily=Comic Sans MS;fontColor=#000000;strokeColor=#457B9D;fillColor=#A8DADC;curved=1;dashed=1;endFill=0;labelBackgroundColor=#F1FAEE;fontStyle=1;entryX=0.996;entryY=0.567;entryDx=0;entryDy=0;entryPerimeter=0;exitX=0;exitY=0.2;exitDx=0;exitDy=0;exitPerimeter=0;" parent="1" source="kfIuf5m89h-3Lnu9Meaa-4" target="kfIuf5m89h-3Lnu9Meaa-18" edge="1"><mxGeometry width="60" relative="1" as="geometry"><mxPoint x="24" y="463" as="sourcePoint"/><mxPoint x="150" y="454" as="targetPoint"/></mxGeometry></mxCell></root></mxGraphModel></diagram></mxfile>